<mxfile host="app.diagrams.net" modified="2023-11-24T00:45:03.629Z" agent="Mozilla/5.0 (Windows NT 10.0; Win64; x64) AppleWebKit/537.36 (KHTML, like Gecko) Chrome/119.0.0.0 Safari/537.36" version="22.1.3" etag="NYk5T3iEtGrVK5CYoRlC" type="github">
  <diagram name="페이지-1" id="mWgZwvGvd00bS5hQTQfo">
    <mxGraphModel>
      <root>
        <mxCell id="0" />
        <mxCell id="1" parent="0" />
      </root>
    </mxGraphModel>
  </diagram>
</mxfile>
